<svg width="100" height="100" viewBox="0 0 100 100" fill="none" xmlns="http://www.w3.org/2000/svg">
<path d="M79.1667 8.33333H61.75C60 3.5 55.4167 0 50 0C44.5833 0 40 3.5 38.25 8.33333H20.8333C16.25 8.33333 12.5 12.0833 12.5 16.6667V83.3333C12.5 87.9167 16.25 91.6667 20.8333 91.6667H79.1667C83.75 91.6667 87.5 87.9167 87.5 83.3333V16.6667C87.5 12.0833 83.75 8.33333 79.1667 8.33333ZM50 8.33333C52.2917 8.33333 54.1667 10.2083 54.1667 12.5C54.1667 14.7917 52.2917 16.6667 50 16.6667C47.7083 16.6667 45.8333 14.7917 45.8333 12.5C45.8333 10.2083 47.7083 8.33333 50 8.33333ZM75 83.3333H25C22.7083 83.3333 20.8333 81.4583 20.8333 79.1667V20.8333C20.8333 18.5417 22.7083 16.6667 25 16.6667H29.1667V20.8333C29.1667 25.4167 32.9167 29.1667 37.5 29.1667H62.5C67.0833 29.1667 70.8333 25.4167 70.8333 20.8333V16.6667H75C77.2917 16.6667 79.1667 18.5417 79.1667 20.8333V79.1667C79.1667 81.4583 77.2917 83.3333 75 83.3333Z" fill="#313131"/>
<path d="M52.0827 38.4167V52.8333H68.7493C68.7493 44.4375 62.541 37.4792 54.4577 36.3333C53.2077 36.1458 52.0827 37.1458 52.0827 38.4167ZM65.2493 65.1042C67.4368 62.2917 68.7493 58.75 68.7493 54.9167H38.416L36.9993 51.9375C36.666 51.2083 35.916 50.75 35.1243 50.75H31.2493C30.1035 50.75 29.166 51.6875 29.166 52.8333C29.166 53.9792 30.1035 54.9167 31.2493 54.9167H33.791C33.791 54.9167 37.7285 63.3958 38.2077 64.125C35.4368 65.6042 33.7493 68.8542 34.5827 72.3333C35.2077 74.9583 37.3743 77.0625 39.9993 77.6458C44.3743 78.6042 48.291 75.6458 48.8535 71.5833H53.1868C53.7493 75.625 57.6452 78.5833 61.9785 77.6667C64.6243 77.1042 66.791 75.0208 67.4577 72.3958C68.1868 69.5 67.166 66.8125 65.2493 65.1042ZM41.666 73.6667C39.9368 73.6667 38.541 72.2708 38.541 70.5417C38.541 68.8125 39.9368 67.4167 41.666 67.4167C43.3952 67.4167 44.791 68.8125 44.791 70.5417C44.791 72.2708 43.3952 73.6667 41.666 73.6667ZM60.416 73.6667C58.6868 73.6667 57.291 72.2708 57.291 70.5417C57.291 68.8125 58.6868 67.4167 60.416 67.4167C62.1452 67.4167 63.541 68.8125 63.541 70.5417C63.541 72.2708 62.1452 73.6667 60.416 73.6667Z" fill="#323232"/>
</svg>
