<svg width="100" height="100" viewBox="0 0 100 100" fill="none" xmlns="http://www.w3.org/2000/svg">
<path d="M79.1667 8.33333H61.75C60 3.5 55.4167 0 50 0C44.5833 0 40 3.5 38.25 8.33333H20.8333C16.25 8.33333 12.5 12.0833 12.5 16.6667V83.3333C12.5 87.9167 16.25 91.6667 20.8333 91.6667H79.1667C83.75 91.6667 87.5 87.9167 87.5 83.3333V16.6667C87.5 12.0833 83.75 8.33333 79.1667 8.33333ZM50 8.33333C52.2917 8.33333 54.1667 10.2083 54.1667 12.5C54.1667 14.7917 52.2917 16.6667 50 16.6667C47.7083 16.6667 45.8333 14.7917 45.8333 12.5C45.8333 10.2083 47.7083 8.33333 50 8.33333ZM75 83.3333H25C22.7083 83.3333 20.8333 81.4583 20.8333 79.1667V20.8333C20.8333 18.5417 22.7083 16.6667 25 16.6667H29.1667V20.8333C29.1667 25.4167 32.9167 29.1667 37.5 29.1667H62.5C67.0833 29.1667 70.8333 25.4167 70.8333 20.8333V16.6667H75C77.2917 16.6667 79.1667 18.5417 79.1667 20.8333V79.1667C79.1667 81.4583 77.2917 83.3333 75 83.3333Z" fill="#313131"/>
<path d="M70.0001 72.9166L52.0834 59.4791V57.5833C55.5209 56.5625 57.9167 53.0625 57.1459 49.1458C56.6042 46.4166 54.4376 44.1458 51.7084 43.5208C48.0417 42.6875 44.6876 44.625 43.3334 47.6458C42.7084 49.0416 43.7084 50.625 45.2292 50.625C46.0417 50.625 46.7917 50.1666 47.1042 49.4375C47.5834 48.2916 48.6876 47.5 50.0001 47.5C51.7292 47.5 53.1251 48.8958 53.1251 50.625C53.1251 52.375 51.6876 53.7916 49.9376 53.75C48.8126 53.7291 47.9167 54.6875 47.9167 55.8125V59.4791L30.0001 72.9166C28.3959 74.125 29.2501 76.6666 31.2501 76.6666H50.0001H68.7501C70.7501 76.6666 71.6042 74.125 70.0001 72.9166ZM37.5001 72.5L50.0001 63.125L62.5001 72.5H37.5001Z" fill="#323232"/>
</svg>
