<svg width="100" height="100" viewBox="0 0 100 100" fill="none" xmlns="http://www.w3.org/2000/svg">
<path d="M79.1667 8.33333H61.75C60 3.5 55.4167 0 50 0C44.5833 0 40 3.5 38.25 8.33333H20.8333C16.25 8.33333 12.5 12.0833 12.5 16.6667V83.3333C12.5 87.9167 16.25 91.6667 20.8333 91.6667H79.1667C83.75 91.6667 87.5 87.9167 87.5 83.3333V16.6667C87.5 12.0833 83.75 8.33333 79.1667 8.33333ZM50 8.33333C52.2917 8.33333 54.1667 10.2083 54.1667 12.5C54.1667 14.7917 52.2917 16.6667 50 16.6667C47.7083 16.6667 45.8333 14.7917 45.8333 12.5C45.8333 10.2083 47.7083 8.33333 50 8.33333ZM75 83.3333H25C22.7083 83.3333 20.8333 81.4583 20.8333 79.1667V20.8333C20.8333 18.5417 22.7083 16.6667 25 16.6667H29.1667V20.8333C29.1667 25.4167 32.9167 29.1667 37.5 29.1667H62.5C67.0833 29.1667 70.8333 25.4167 70.8333 20.8333V16.6667H75C77.2917 16.6667 79.1667 18.5417 79.1667 20.8333V79.1667C79.1667 81.4583 77.2917 83.3333 75 83.3333Z" fill="#313131"/>
<path d="M66.666 41.3334H33.3327C31.0202 41.3334 29.1868 43.1875 29.1868 45.5L29.166 70.5C29.166 72.8125 31.0202 74.6667 33.3327 74.6667H66.666C68.9785 74.6667 70.8327 72.8125 70.8327 70.5V45.5C70.8327 43.1875 68.9785 41.3334 66.666 41.3334ZM66.666 68.4167C66.666 69.5625 65.7285 70.5 64.5827 70.5H35.416C34.2702 70.5 33.3327 69.5625 33.3327 68.4167V47.5834C33.3327 46.4375 34.2702 45.5 35.416 45.5H64.5827C65.7285 45.5 66.666 46.4375 66.666 47.5834V68.4167ZM54.166 53.8334C55.3119 53.8334 56.2494 52.8959 56.2494 51.75C56.2494 50.6042 55.3119 49.6667 54.166 49.6667H52.0827V49.6459C52.0827 48.5 51.1452 47.5625 49.9994 47.5625C48.8535 47.5625 47.916 48.5 47.916 49.6459V49.6667H45.8327C44.6869 49.6667 43.7493 50.6042 43.7493 51.75V58C43.7493 59.1459 44.6869 60.0834 45.8327 60.0834H52.0827V62.1667H45.8327C44.6869 62.1667 43.7493 63.1042 43.7493 64.25C43.7493 65.3959 44.6869 66.3334 45.8327 66.3334H47.916C47.916 67.4792 48.8535 68.4167 49.9994 68.4167C51.1452 68.4167 52.0827 67.4792 52.0827 66.3334H54.166C55.3119 66.3334 56.2494 65.3959 56.2494 64.25V58C56.2494 56.8542 55.3119 55.9167 54.166 55.9167H47.916V53.8334H54.166Z" fill="#323232"/>
</svg>
