<svg width="100" height="100" viewBox="0 0 100 100" fill="none" xmlns="http://www.w3.org/2000/svg">
<path d="M79.1667 8.33333H61.75C60 3.5 55.4167 0 50 0C44.5833 0 40 3.5 38.25 8.33333H20.8333C16.25 8.33333 12.5 12.0833 12.5 16.6667V83.3333C12.5 87.9167 16.25 91.6667 20.8333 91.6667H79.1667C83.75 91.6667 87.5 87.9167 87.5 83.3333V16.6667C87.5 12.0833 83.75 8.33333 79.1667 8.33333ZM50 8.33333C52.2917 8.33333 54.1667 10.2083 54.1667 12.5C54.1667 14.7917 52.2917 16.6667 50 16.6667C47.7083 16.6667 45.8333 14.7917 45.8333 12.5C45.8333 10.2083 47.7083 8.33333 50 8.33333ZM75 83.3333H25C22.7083 83.3333 20.8333 81.4583 20.8333 79.1667V20.8333C20.8333 18.5417 22.7083 16.6667 25 16.6667H29.1667V20.8333C29.1667 25.4167 32.9167 29.1667 37.5 29.1667H62.5C67.0833 29.1667 70.8333 25.4167 70.8333 20.8333V16.6667H75C77.2917 16.6667 79.1667 18.5417 79.1667 20.8333V79.1667C79.1667 81.4583 77.2917 83.3333 75 83.3333Z" fill="#313131"/>
<path d="M68.0625 43.375H60.75V37.75C60.75 36.7187 59.9062 35.875 58.875 35.875C57.8438 35.875 57 36.7187 57 37.75V43.375H49.6875C48.5813 43.375 47.7188 44.3312 47.8125 45.4375L48.0375 47.7062C54.9375 49.3 60.75 54.1937 60.75 62.125L60.7875 77.125H63.975C65.55 77.125 66.8438 75.9062 67.0312 74.3687L69.9187 45.4375C70.0312 44.3312 69.1688 43.375 68.0625 43.375ZM55.125 73.375H30.75C29.7188 73.375 28.875 74.2187 28.875 75.25C28.875 76.2812 29.7188 77.125 30.75 77.125H55.125C56.1562 77.125 57 76.2812 57 75.25C57 74.2187 56.1562 73.375 55.125 73.375ZM30.9375 62.125H54.9375C56.1 62.125 57.0188 61.075 56.7938 59.95C55.575 53.8937 49.2563 50.8562 42.9375 50.8562C36.6188 50.8562 30.3188 53.8937 29.0813 59.95C28.8563 61.075 29.7937 62.125 30.9375 62.125ZM55.125 65.875H30.75C29.7188 65.875 28.875 66.7187 28.875 67.75C28.875 68.7812 29.7188 69.625 30.75 69.625H55.125C56.1562 69.625 57 68.7812 57 67.75C57 66.7187 56.1562 65.875 55.125 65.875Z" fill="#313131"/>
</svg>
