<svg width="100" height="100" viewBox="0 0 100 100" fill="none" xmlns="http://www.w3.org/2000/svg">
<path d="M79.1667 8.33333H61.75C60 3.5 55.4167 0 50 0C44.5833 0 40 3.5 38.25 8.33333H20.8333C16.25 8.33333 12.5 12.0833 12.5 16.6667V83.3333C12.5 87.9167 16.25 91.6667 20.8333 91.6667H79.1667C83.75 91.6667 87.5 87.9167 87.5 83.3333V16.6667C87.5 12.0833 83.75 8.33333 79.1667 8.33333ZM50 8.33333C52.2917 8.33333 54.1667 10.2083 54.1667 12.5C54.1667 14.7917 52.2917 16.6667 50 16.6667C47.7083 16.6667 45.8333 14.7917 45.8333 12.5C45.8333 10.2083 47.7083 8.33333 50 8.33333ZM75 83.3333H25C22.7083 83.3333 20.8333 81.4583 20.8333 79.1667V20.8333C20.8333 18.5417 22.7083 16.6667 25 16.6667H29.1667V20.8333C29.1667 25.4167 32.9167 29.1667 37.5 29.1667H62.5C67.0833 29.1667 70.8333 25.4167 70.8333 20.8333V16.6667H75C77.2917 16.6667 79.1667 18.5417 79.1667 20.8333V79.1667C79.1667 81.4583 77.2917 83.3333 75 83.3333Z" fill="#313131"/>
<path d="M64.5833 39.25H35.4167C33.125 39.25 31.2708 41.125 31.2708 43.4167L31.25 72.5833C31.25 74.875 33.125 76.75 35.4167 76.75H64.5833C66.875 76.75 68.75 74.875 68.75 72.5833V43.4167C68.75 41.125 66.875 39.25 64.5833 39.25ZM60.4167 62.1667H54.1667V68.4167C54.1667 69.5625 53.2292 70.5 52.0833 70.5H47.9167C46.7708 70.5 45.8333 69.5625 45.8333 68.4167V62.1667H39.5833C38.4375 62.1667 37.5 61.2292 37.5 60.0833V55.9167C37.5 54.7708 38.4375 53.8333 39.5833 53.8333H45.8333V47.5833C45.8333 46.4375 46.7708 45.5 47.9167 45.5H52.0833C53.2292 45.5 54.1667 46.4375 54.1667 47.5833V53.8333H60.4167C61.5625 53.8333 62.5 54.7708 62.5 55.9167V60.0833C62.5 61.2292 61.5625 62.1667 60.4167 62.1667Z" fill="#323232"/>
</svg>
