<svg width="100" height="100" viewBox="0 0 100 100" fill="none" xmlns="http://www.w3.org/2000/svg">
<path d="M79.1667 8.33333H61.75C60 3.5 55.4167 0 50 0C44.5833 0 40 3.5 38.25 8.33333H20.8333C16.25 8.33333 12.5 12.0833 12.5 16.6667V83.3333C12.5 87.9167 16.25 91.6667 20.8333 91.6667H79.1667C83.75 91.6667 87.5 87.9167 87.5 83.3333V16.6667C87.5 12.0833 83.75 8.33333 79.1667 8.33333ZM50 8.33333C52.2917 8.33333 54.1667 10.2083 54.1667 12.5C54.1667 14.7917 52.2917 16.6667 50 16.6667C47.7083 16.6667 45.8333 14.7917 45.8333 12.5C45.8333 10.2083 47.7083 8.33333 50 8.33333ZM75 83.3333H25C22.7083 83.3333 20.8333 81.4583 20.8333 79.1667V20.8333C20.8333 18.5417 22.7083 16.6667 25 16.6667H29.1667V20.8333C29.1667 25.4167 32.9167 29.1667 37.5 29.1667H62.5C67.0833 29.1667 70.8333 25.4167 70.8333 20.8333V16.6667H75C77.2917 16.6667 79.1667 18.5417 79.1667 20.8333V79.1667C79.1667 81.4583 77.2917 83.3333 75 83.3333Z" fill="#313131"/>
<path d="M64.5834 54.375V45.4167C64.5834 44.2708 63.6459 43.3333 62.5001 43.3333H60.4167C59.2709 43.3333 58.3334 44.2708 58.3334 45.4167V48.75L51.3959 42.5C50.6042 41.7917 49.3959 41.7917 48.6042 42.5L31.1876 58.1875C30.4792 58.8125 30.9167 60 31.8751 60H35.4167V74.5833C35.4167 75.7292 36.3542 76.6667 37.5001 76.6667H43.7501C44.8959 76.6667 45.8334 75.7292 45.8334 74.5833V64.1667H54.1667V74.5833C54.1667 75.7292 55.1042 76.6667 56.2501 76.6667H62.5001C63.6459 76.6667 64.5834 75.7292 64.5834 74.5833V60H68.1251C69.0834 60 69.5417 58.8125 68.8126 58.1875L64.5834 54.375ZM45.8334 55.8333C45.8334 53.5417 47.7084 51.6667 50.0001 51.6667C52.2917 51.6667 54.1667 53.5417 54.1667 55.8333H45.8334Z" fill="#323232"/>
</svg>
