<svg width="100" height="100" viewBox="0 0 100 100" fill="none" xmlns="http://www.w3.org/2000/svg">
<path d="M79.1667 8.33333H61.75C60 3.5 55.4167 0 50 0C44.5833 0 40 3.5 38.25 8.33333H20.8333C16.25 8.33333 12.5 12.0833 12.5 16.6667V83.3333C12.5 87.9167 16.25 91.6667 20.8333 91.6667H79.1667C83.75 91.6667 87.5 87.9167 87.5 83.3333V16.6667C87.5 12.0833 83.75 8.33333 79.1667 8.33333ZM50 8.33333C52.2917 8.33333 54.1667 10.2083 54.1667 12.5C54.1667 14.7917 52.2917 16.6667 50 16.6667C47.7083 16.6667 45.8333 14.7917 45.8333 12.5C45.8333 10.2083 47.7083 8.33333 50 8.33333ZM75 83.3333H25C22.7083 83.3333 20.8333 81.4583 20.8333 79.1667V20.8333C20.8333 18.5417 22.7083 16.6667 25 16.6667H29.1667V20.8333C29.1667 25.4167 32.9167 29.1667 37.5 29.1667H62.5C67.0833 29.1667 70.8333 25.4167 70.8333 20.8333V16.6667H75C77.2917 16.6667 79.1667 18.5417 79.1667 20.8333V79.1667C79.1667 81.4583 77.2917 83.3333 75 83.3333Z" fill="#313131"/>
<path d="M50.0006 61C54.6048 61 58.334 57.2709 58.334 52.6667C58.334 48.0625 54.6048 44.3334 50.0006 44.3334C45.3965 44.3334 41.6673 48.0625 41.6673 52.6667C41.6673 57.2709 45.3965 61 50.0006 61ZM50.0006 65.1667C44.4381 65.1667 33.334 67.9584 33.334 73.5V75.5834C33.334 76.7292 34.2715 77.6667 35.4173 77.6667H64.584C65.7298 77.6667 66.6673 76.7292 66.6673 75.5834V73.5C66.6673 67.9584 55.5631 65.1667 50.0006 65.1667Z" fill="#323232"/>
</svg>
