<svg width="100" height="100" viewBox="0 0 100 100" fill="none" xmlns="http://www.w3.org/2000/svg">
<path d="M79.1667 8.33333H61.75C60 3.5 55.4167 0 50 0C44.5833 0 40 3.5 38.25 8.33333H20.8333C16.25 8.33333 12.5 12.0833 12.5 16.6667V83.3333C12.5 87.9167 16.25 91.6667 20.8333 91.6667H79.1667C83.75 91.6667 87.5 87.9167 87.5 83.3333V16.6667C87.5 12.0833 83.75 8.33333 79.1667 8.33333ZM50 8.33333C52.2917 8.33333 54.1667 10.2083 54.1667 12.5C54.1667 14.7917 52.2917 16.6667 50 16.6667C47.7083 16.6667 45.8333 14.7917 45.8333 12.5C45.8333 10.2083 47.7083 8.33333 50 8.33333ZM75 83.3333H25C22.7083 83.3333 20.8333 81.4583 20.8333 79.1667V20.8333C20.8333 18.5417 22.7083 16.6667 25 16.6667H29.1667V20.8333C29.1667 25.4167 32.9167 29.1667 37.5 29.1667H62.5C67.0833 29.1667 70.8333 25.4167 70.8333 20.8333V16.6667H75C77.2917 16.6667 79.1667 18.5417 79.1667 20.8333V79.1667C79.1667 81.4583 77.2917 83.3333 75 83.3333Z" fill="#313131"/>
<path d="M53.5699 61.7062L56.1949 57.1688C56.3637 56.8875 56.2887 56.5312 56.0449 56.325L53.2699 54.15C53.3262 53.7375 53.3637 53.3062 53.3637 52.875C53.3637 52.4438 53.3262 52.0125 53.2699 51.5813L56.0449 49.4062C56.2887 49.2 56.3637 48.8438 56.1949 48.5625L53.5699 44.025C53.4012 43.7438 53.0637 43.6313 52.7637 43.7438L49.5012 45.0562C48.8262 44.5312 48.0949 44.1 47.2887 43.7625L46.8012 40.2937C46.7449 39.9937 46.4637 39.75 46.1449 39.75H40.8949C40.5762 39.75 40.2949 39.9937 40.2387 40.3125L39.7512 43.7812C38.9637 44.1188 38.2137 44.55 37.5387 45.075L34.2762 43.7625C33.9762 43.65 33.6387 43.7625 33.4699 44.0437L30.8449 48.5813C30.6762 48.8625 30.7512 49.2188 30.9949 49.425L33.7699 51.6C33.7137 52.0125 33.6762 52.4438 33.6762 52.875C33.6762 53.3062 33.7137 53.7375 33.7699 54.1687L30.9949 56.3438C30.7512 56.55 30.6762 56.9062 30.8449 57.1875L33.4699 61.725C33.6387 62.0063 33.9762 62.1187 34.2762 62.0063L37.5387 60.6938C38.2137 61.2188 38.9449 61.65 39.7512 61.9875L40.2387 65.4562C40.2949 65.7563 40.5762 66 40.8949 66H46.1449C46.4637 66 46.7449 65.7563 46.8012 65.4375L47.2887 61.9688C48.0762 61.6313 48.8262 61.2 49.5012 60.675L52.7637 61.9875C53.0637 62.1 53.4012 61.9875 53.5699 61.7062ZM43.5199 56.625C41.4574 56.625 39.7699 54.9375 39.7699 52.875C39.7699 50.8125 41.4574 49.125 43.5199 49.125C45.5824 49.125 47.2699 50.8125 47.2699 52.875C47.2699 54.9375 45.5824 56.625 43.5199 56.625Z" fill="#323232"/>
<path d="M68.1027 71.0063L66.3027 69.6188C66.3402 69.3563 66.3777 69.075 66.3777 68.7937C66.3777 68.5125 66.359 68.2312 66.3027 67.9687L68.084 66.5812C68.234 66.45 68.2902 66.225 68.1777 66.0375L66.4902 63.1313C66.3965 62.9438 66.1715 62.8875 65.9652 62.9437L63.884 63.7875C63.4527 63.45 62.984 63.1688 62.459 62.9625L62.1402 60.75C62.1215 60.525 61.934 60.375 61.7465 60.375H58.3902C58.184 60.375 57.9965 60.525 57.9777 60.7312L57.659 62.9437C57.1528 63.1688 56.6652 63.4313 56.234 63.7688L54.1527 62.925C53.9652 62.85 53.7402 62.925 53.6278 63.1125L51.9403 66.0188C51.8465 66.2063 51.8653 66.4312 52.034 66.5625L53.8153 67.95C53.7778 68.2125 53.759 68.4937 53.759 68.775C53.759 69.0562 53.7778 69.3375 53.8153 69.6L52.034 70.9875C51.884 71.1188 51.8278 71.3438 51.9403 71.5313L53.6278 74.4375C53.7215 74.625 53.9465 74.6813 54.1527 74.625L56.234 73.7812C56.6652 74.1188 57.134 74.4 57.659 74.6063L57.9777 76.8188C58.0153 77.025 58.184 77.175 58.3902 77.175H61.7465C61.9528 77.175 62.1402 77.025 62.159 76.8188L62.4777 74.6063C62.984 74.3813 63.4715 74.1188 63.884 73.7812L65.984 74.625C66.1715 74.7 66.3965 74.625 66.509 74.4375L68.1965 71.5313C68.309 71.3625 68.2527 71.1375 68.1027 71.0063ZM60.059 71.3063C58.6715 71.3063 57.5278 70.1812 57.5278 68.775C57.5278 67.3687 58.6527 66.2437 60.059 66.2437C61.4652 66.2437 62.5902 67.3687 62.5902 68.775C62.5902 70.1812 61.4465 71.3063 60.059 71.3063Z" fill="#323232"/>
</svg>
