<svg width="100" height="100" viewBox="0 0 100 100" fill="none" xmlns="http://www.w3.org/2000/svg">
<path d="M79.1667 8.33333H61.75C60 3.5 55.4167 0 50 0C44.5833 0 40 3.5 38.25 8.33333H20.8333C16.25 8.33333 12.5 12.0833 12.5 16.6667V83.3333C12.5 87.9167 16.25 91.6667 20.8333 91.6667H79.1667C83.75 91.6667 87.5 87.9167 87.5 83.3333V16.6667C87.5 12.0833 83.75 8.33333 79.1667 8.33333ZM50 8.33333C52.2917 8.33333 54.1667 10.2083 54.1667 12.5C54.1667 14.7917 52.2917 16.6667 50 16.6667C47.7083 16.6667 45.8333 14.7917 45.8333 12.5C45.8333 10.2083 47.7083 8.33333 50 8.33333ZM75 83.3333H25C22.7083 83.3333 20.8333 81.4583 20.8333 79.1667V20.8333C20.8333 18.5417 22.7083 16.6667 25 16.6667H29.1667V20.8333C29.1667 25.4167 32.9167 29.1667 37.5 29.1667H62.5C67.0833 29.1667 70.8333 25.4167 70.8333 20.8333V16.6667H75C77.2917 16.6667 79.1667 18.5417 79.1667 20.8333V79.1667C79.1667 81.4583 77.2917 83.3333 75 83.3333Z" fill="#313131"/>
<path d="M51.6191 63.3L54.3003 60.6187L65.0441 71.3625C65.7753 72.0937 65.7753 73.2937 65.0441 74.0437C64.3128 74.775 63.1128 74.775 62.3628 74.0437L51.6191 63.3ZM59.6628 52.5562L62.0441 50.175C63.7128 48.5062 63.4878 45.6187 61.4628 44.4C54.1691 39.9375 44.5316 40.8562 38.2128 47.1562C45.5816 44.7187 53.7941 46.6875 59.6628 52.5562ZM38.1566 47.2125C31.8566 53.5312 30.9378 63.1687 35.3816 70.4625C36.6191 72.4875 39.4878 72.7312 41.1566 71.0437L43.5378 68.6625C37.6878 62.7937 35.7191 54.5812 38.1566 47.2125ZM38.1941 47.175L38.1753 47.1937C37.4628 52.8375 40.3691 60.0937 46.2378 65.9812L56.9816 55.2375C51.1128 49.3687 43.8378 46.4625 38.1941 47.175Z" fill="#323232"/>
</svg>
