<svg width="100" height="100" viewBox="0 0 100 100" fill="none" xmlns="http://www.w3.org/2000/svg">
<path d="M79.1667 8.33333H61.75C60 3.5 55.4167 0 50 0C44.5833 0 40 3.5 38.25 8.33333H20.8333C16.25 8.33333 12.5 12.0833 12.5 16.6667V83.3333C12.5 87.9167 16.25 91.6667 20.8333 91.6667H79.1667C83.75 91.6667 87.5 87.9167 87.5 83.3333V16.6667C87.5 12.0833 83.75 8.33333 79.1667 8.33333ZM50 8.33333C52.2917 8.33333 54.1667 10.2083 54.1667 12.5C54.1667 14.7917 52.2917 16.6667 50 16.6667C47.7083 16.6667 45.8333 14.7917 45.8333 12.5C45.8333 10.2083 47.7083 8.33333 50 8.33333ZM75 83.3333H25C22.7083 83.3333 20.8333 81.4583 20.8333 79.1667V20.8333C20.8333 18.5417 22.7083 16.6667 25 16.6667H29.1667V20.8333C29.1667 25.4167 32.9167 29.1667 37.5 29.1667H62.5C67.0833 29.1667 70.8333 25.4167 70.8333 20.8333V16.6667H75C77.2917 16.6667 79.1667 18.5417 79.1667 20.8333V79.1667C79.1667 81.4583 77.2917 83.3333 75 83.3333Z" fill="#313131"/>
<path d="M64.5833 50.7499H61.3333C62.0208 49.6041 62.4375 48.2916 62.4792 46.8749C62.5625 44.7291 61.5833 42.7291 60.0625 41.2291C56.8542 38.0208 54.3542 37.9791 52.1042 38.5416C50.4167 37.1041 48.25 36.2083 45.8333 36.2083C41.8958 36.2083 38.5208 38.5208 36.9375 41.8541C33.6458 42.9583 31.25 46.0416 31.25 49.7083C31.25 53.5833 33.9167 56.8124 37.5 57.7499V71.5832C37.5 73.8749 39.375 75.7499 41.6667 75.7499H56.25C58.5417 75.7499 60.4167 73.8749 60.4167 71.5832H64.5833C66.875 71.5832 68.75 69.7082 68.75 67.4166V54.9166C68.75 52.6249 66.875 50.7499 64.5833 50.7499ZM39.5833 53.8749C37.2917 53.8749 35.4167 51.9999 35.4167 49.7083C35.4167 47.9374 36.5625 46.3749 38.2708 45.7916L39.9375 45.2291L40.6875 43.6458C41.6667 41.6249 43.625 40.3749 45.8333 40.3749C47.4792 40.3749 48.7292 41.1041 49.4583 41.7291L51.0833 43.0833C51.0833 43.0833 52.4167 42.4166 54.1458 42.4166C56.4375 42.4166 58.3125 44.2916 58.3125 46.5833H52.0625C45.1458 46.5833 44.0625 53.8749 39.5833 53.8749ZM64.5833 67.4166H60.4167V54.9166H64.5833V67.4166Z" fill="#323232"/>
</svg>
