<svg width="100" height="100" viewBox="0 0 100 100" fill="none" xmlns="http://www.w3.org/2000/svg">
<path d="M79.1667 8.33333H61.75C60 3.5 55.4167 0 50 0C44.5833 0 40 3.5 38.25 8.33333H20.8333C16.25 8.33333 12.5 12.0833 12.5 16.6667V83.3333C12.5 87.9167 16.25 91.6667 20.8333 91.6667H79.1667C83.75 91.6667 87.5 87.9167 87.5 83.3333V16.6667C87.5 12.0833 83.75 8.33333 79.1667 8.33333ZM50 8.33333C52.2917 8.33333 54.1667 10.2083 54.1667 12.5C54.1667 14.7917 52.2917 16.6667 50 16.6667C47.7083 16.6667 45.8333 14.7917 45.8333 12.5C45.8333 10.2083 47.7083 8.33333 50 8.33333ZM75 83.3333H25C22.7083 83.3333 20.8333 81.4583 20.8333 79.1667V20.8333C20.8333 18.5417 22.7083 16.6667 25 16.6667H29.1667V20.8333C29.1667 25.4167 32.9167 29.1667 37.5 29.1667H62.5C67.0833 29.1667 70.8333 25.4167 70.8333 20.8333V16.6667H75C77.2917 16.6667 79.1667 18.5417 79.1667 20.8333V79.1667C79.1667 81.4583 77.2917 83.3333 75 83.3333Z" fill="#313131"/>
<path d="M49.8332 42.5208C56.4582 43.3541 61.6457 48.5416 62.479 55.1666C62.604 56.2291 63.4998 56.9999 64.5415 56.9999C64.6248 56.9999 64.7082 56.9999 64.7915 56.9791C65.9373 56.8333 66.7498 55.7916 66.604 54.6458C65.5415 46.1249 58.854 39.4374 50.3332 38.3749C49.1873 38.2499 48.1457 39.0624 48.0207 40.2083C47.8748 41.3541 48.6873 42.3958 49.8332 42.5208ZM50.6248 46.9166C49.5207 46.6249 48.3748 47.2916 48.0832 48.4166C47.7915 49.5416 48.4582 50.6666 49.5832 50.9583C51.7707 51.5208 53.479 53.2291 54.0623 55.4374C54.3123 56.3749 55.1457 56.9999 56.0832 56.9999C56.2498 56.9999 56.4373 56.9791 56.604 56.9374C57.7082 56.6458 58.3748 55.4999 58.104 54.3958C57.1248 50.7083 54.2707 47.8541 50.6248 46.9166ZM63.0623 63.7916L57.7707 63.1874C56.4998 63.0416 55.2498 63.4791 54.354 64.3749L50.5207 68.2082C44.6248 65.2082 39.7915 60.3958 36.7915 54.4791L40.6457 50.6249C41.5415 49.7291 41.979 48.4791 41.8332 47.2083L41.229 41.9583C40.979 39.8541 39.2082 38.2708 37.0832 38.2708H33.479C31.1248 38.2708 29.1665 40.2291 29.3123 42.5833C30.4165 60.3749 44.6457 74.5832 62.4165 75.6874C64.7707 75.8332 66.729 73.8749 66.729 71.5207V67.9166C66.7498 65.8124 65.1665 64.0416 63.0623 63.7916Z" fill="#323232"/>
</svg>
