<svg width="100" height="100" viewBox="0 0 100 100" fill="none" xmlns="http://www.w3.org/2000/svg">
<path d="M79.1667 8.33333H61.75C60 3.5 55.4167 0 50 0C44.5833 0 40 3.5 38.25 8.33333H20.8333C16.25 8.33333 12.5 12.0833 12.5 16.6667V83.3333C12.5 87.9167 16.25 91.6667 20.8333 91.6667H79.1667C83.75 91.6667 87.5 87.9167 87.5 83.3333V16.6667C87.5 12.0833 83.75 8.33333 79.1667 8.33333ZM50 8.33333C52.2917 8.33333 54.1667 10.2083 54.1667 12.5C54.1667 14.7917 52.2917 16.6667 50 16.6667C47.7083 16.6667 45.8333 14.7917 45.8333 12.5C45.8333 10.2083 47.7083 8.33333 50 8.33333ZM75 83.3333H25C22.7083 83.3333 20.8333 81.4583 20.8333 79.1667V20.8333C20.8333 18.5417 22.7083 16.6667 25 16.6667H29.1667V20.8333C29.1667 25.4167 32.9167 29.1667 37.5 29.1667H62.5C67.0833 29.1667 70.8333 25.4167 70.8333 20.8333V16.6667H75C77.2917 16.6667 79.1667 18.5417 79.1667 20.8333V79.1667C79.1667 81.4583 77.2917 83.3333 75 83.3333Z" fill="#313131"/>
<path d="M50 38.25C39.6458 38.25 31.25 46.6458 31.25 57C31.25 67.3542 39.6458 75.75 50 75.75C51.7292 75.75 53.125 74.3542 53.125 72.625C53.125 71.8125 52.8125 71.0833 52.3125 70.5208C51.8333 69.9792 51.5208 69.25 51.5208 68.4583C51.5208 66.7292 52.9167 65.3333 54.6458 65.3333H58.3333C64.0833 65.3333 68.75 60.6667 68.75 54.9167C68.75 45.7083 60.3542 38.25 50 38.25ZM38.5417 57C36.8125 57 35.4167 55.6042 35.4167 53.875C35.4167 52.1458 36.8125 50.75 38.5417 50.75C40.2708 50.75 41.6667 52.1458 41.6667 53.875C41.6667 55.6042 40.2708 57 38.5417 57ZM44.7917 48.6667C43.0625 48.6667 41.6667 47.2708 41.6667 45.5417C41.6667 43.8125 43.0625 42.4167 44.7917 42.4167C46.5208 42.4167 47.9167 43.8125 47.9167 45.5417C47.9167 47.2708 46.5208 48.6667 44.7917 48.6667ZM55.2083 48.6667C53.4792 48.6667 52.0833 47.2708 52.0833 45.5417C52.0833 43.8125 53.4792 42.4167 55.2083 42.4167C56.9375 42.4167 58.3333 43.8125 58.3333 45.5417C58.3333 47.2708 56.9375 48.6667 55.2083 48.6667ZM61.4583 57C59.7292 57 58.3333 55.6042 58.3333 53.875C58.3333 52.1458 59.7292 50.75 61.4583 50.75C63.1875 50.75 64.5833 52.1458 64.5833 53.875C64.5833 55.6042 63.1875 57 61.4583 57Z" fill="#323232"/>
</svg>
