<svg width="100" height="100" viewBox="0 0 100 100" fill="none" xmlns="http://www.w3.org/2000/svg">
<path d="M79.1667 8.33333H61.75C60 3.5 55.4167 0 50 0C44.5833 0 40 3.5 38.25 8.33333H20.8333C16.25 8.33333 12.5 12.0833 12.5 16.6667V83.3333C12.5 87.9167 16.25 91.6667 20.8333 91.6667H79.1667C83.75 91.6667 87.5 87.9167 87.5 83.3333V16.6667C87.5 12.0833 83.75 8.33333 79.1667 8.33333ZM50 8.33333C52.2917 8.33333 54.1667 10.2083 54.1667 12.5C54.1667 14.7917 52.2917 16.6667 50 16.6667C47.7083 16.6667 45.8333 14.7917 45.8333 12.5C45.8333 10.2083 47.7083 8.33333 50 8.33333ZM75 83.3333H25C22.7083 83.3333 20.8333 81.4583 20.8333 79.1667V20.8333C20.8333 18.5417 22.7083 16.6667 25 16.6667H29.1667V20.8333C29.1667 25.4167 32.9167 29.1667 37.5 29.1667H62.5C67.0833 29.1667 70.8333 25.4167 70.8333 20.8333V16.6667H75C77.2917 16.6667 79.1667 18.5417 79.1667 20.8333V79.1667C79.1667 81.4583 77.2917 83.3333 75 83.3333Z" fill="#313131"/>
<path d="M56.25 53.9166V43.1458C56.25 42.0416 55.8125 40.9791 55.0208 40.2083L51.4583 36.6458C50.6458 35.8333 49.3333 35.8333 48.5208 36.6458L44.9792 40.1874C44.1875 40.9791 43.75 42.0416 43.75 43.1458V45.5833H35.4167C33.125 45.5833 31.25 47.4583 31.25 49.7499V70.5833C31.25 72.8749 33.125 74.7499 35.4167 74.7499H64.5833C66.875 74.7499 68.75 72.8749 68.75 70.5833V58.0833C68.75 55.7916 66.875 53.9166 64.5833 53.9166H56.25ZM39.5833 70.5833H35.4167V66.4166H39.5833V70.5833ZM39.5833 62.2499H35.4167V58.0833H39.5833V62.2499ZM39.5833 53.9166H35.4167V49.7499H39.5833V53.9166ZM52.0833 70.5833H47.9167V66.4166H52.0833V70.5833ZM52.0833 62.2499H47.9167V58.0833H52.0833V62.2499ZM52.0833 53.9166H47.9167V49.7499H52.0833V53.9166ZM52.0833 45.5833H47.9167V41.4166H52.0833V45.5833ZM64.5833 70.5833H60.4167V66.4166H64.5833V70.5833ZM64.5833 62.2499H60.4167V58.0833H64.5833V62.2499Z" fill="#323232"/>
</svg>
