<svg width="100" height="100" viewBox="0 0 100 100" fill="none" xmlns="http://www.w3.org/2000/svg">
<path d="M79.1667 8.33333H61.75C60 3.5 55.4167 0 50 0C44.5833 0 40 3.5 38.25 8.33333H20.8333C16.25 8.33333 12.5 12.0833 12.5 16.6667V83.3333C12.5 87.9167 16.25 91.6667 20.8333 91.6667H79.1667C83.75 91.6667 87.5 87.9167 87.5 83.3333V16.6667C87.5 12.0833 83.75 8.33333 79.1667 8.33333ZM50 8.33333C52.2917 8.33333 54.1667 10.2083 54.1667 12.5C54.1667 14.7917 52.2917 16.6667 50 16.6667C47.7083 16.6667 45.8333 14.7917 45.8333 12.5C45.8333 10.2083 47.7083 8.33333 50 8.33333ZM75 83.3333H25C22.7083 83.3333 20.8333 81.4583 20.8333 79.1667V20.8333C20.8333 18.5417 22.7083 16.6667 25 16.6667H29.1667V20.8333C29.1667 25.4167 32.9167 29.1667 37.5 29.1667H62.5C67.0833 29.1667 70.8333 25.4167 70.8333 20.8333V16.6667H75C77.2917 16.6667 79.1667 18.5417 79.1667 20.8333V79.1667C79.1667 81.4583 77.2917 83.3333 75 83.3333Z" fill="#313131"/>
<path d="M50 61.5625C53.3958 61.5625 56.3958 62.375 58.8333 63.4375C61.0833 64.4375 62.5 66.6875 62.5 69.125V70.4167C62.5 71.5625 61.5625 72.5 60.4167 72.5H39.5833C38.4375 72.5 37.5 71.5625 37.5 70.4167V69.1458C37.5 66.6875 38.9167 64.4375 41.1667 63.4583C43.6042 62.375 46.6042 61.5625 50 61.5625ZM33.3333 62.0833C35.625 62.0833 37.5 60.2083 37.5 57.9167C37.5 55.625 35.625 53.75 33.3333 53.75C31.0417 53.75 29.1667 55.625 29.1667 57.9167C29.1667 60.2083 31.0417 62.0833 33.3333 62.0833ZM35.6875 64.375C34.9167 64.25 34.1458 64.1667 33.3333 64.1667C31.2708 64.1667 29.3125 64.6042 27.5417 65.375C26 66.0417 25 67.5417 25 69.2292V70.4167C25 71.5625 25.9375 72.5 27.0833 72.5H34.375V69.1458C34.375 67.4167 34.8542 65.7917 35.6875 64.375ZM66.6667 62.0833C68.9583 62.0833 70.8333 60.2083 70.8333 57.9167C70.8333 55.625 68.9583 53.75 66.6667 53.75C64.375 53.75 62.5 55.625 62.5 57.9167C62.5 60.2083 64.375 62.0833 66.6667 62.0833ZM75 69.2292C75 67.5417 74 66.0417 72.4583 65.375C70.6875 64.6042 68.7292 64.1667 66.6667 64.1667C65.8542 64.1667 65.0833 64.25 64.3125 64.375C65.1458 65.7917 65.625 67.4167 65.625 69.1458V72.5H72.9167C74.0625 72.5 75 71.5625 75 70.4167V69.2292ZM50 47.5C53.4583 47.5 56.25 50.2917 56.25 53.75C56.25 57.2083 53.4583 60 50 60C46.5417 60 43.75 57.2083 43.75 53.75C43.75 50.2917 46.5417 47.5 50 47.5Z" fill="#323232"/>
</svg>
