<svg width="100" height="100" viewBox="0 0 100 100" fill="none" xmlns="http://www.w3.org/2000/svg">
<path d="M79.1667 8.33333H61.75C60 3.5 55.4167 0 50 0C44.5833 0 40 3.5 38.25 8.33333H20.8333C16.25 8.33333 12.5 12.0833 12.5 16.6667V83.3333C12.5 87.9167 16.25 91.6667 20.8333 91.6667H79.1667C83.75 91.6667 87.5 87.9167 87.5 83.3333V16.6667C87.5 12.0833 83.75 8.33333 79.1667 8.33333ZM50 8.33333C52.2917 8.33333 54.1667 10.2083 54.1667 12.5C54.1667 14.7917 52.2917 16.6667 50 16.6667C47.7083 16.6667 45.8333 14.7917 45.8333 12.5C45.8333 10.2083 47.7083 8.33333 50 8.33333ZM75 83.3333H25C22.7083 83.3333 20.8333 81.4583 20.8333 79.1667V20.8333C20.8333 18.5417 22.7083 16.6667 25 16.6667H29.1667V20.8333C29.1667 25.4167 32.9167 29.1667 37.5 29.1667H62.5C67.0833 29.1667 70.8333 25.4167 70.8333 20.8333V16.6667H75C77.2917 16.6667 79.1667 18.5417 79.1667 20.8333V79.1667C79.1667 81.4583 77.2917 83.3333 75 83.3333Z" fill="#313131"/>
<path d="M39.5833 55.8334H35.4167V51.6667C35.4167 50.5209 34.4792 49.5834 33.3333 49.5834C32.1875 49.5834 31.25 50.5209 31.25 51.6667V55.8334H27.0833C25.9375 55.8334 25 56.7709 25 57.9167C25 59.0626 25.9375 60.0001 27.0833 60.0001H31.25V64.1667C31.25 65.3126 32.1875 66.2501 33.3333 66.2501C34.4792 66.2501 35.4167 65.3126 35.4167 64.1667V60.0001H39.5833C40.7292 60.0001 41.6667 59.0626 41.6667 57.9167C41.6667 56.7709 40.7292 55.8334 39.5833 55.8334ZM62.5 57.9167C65.9583 57.9167 68.7292 55.1251 68.7292 51.6667C68.7292 48.2084 65.9583 45.4167 62.5 45.4167C61.8333 45.4167 61.1875 45.5209 60.6042 45.7084C61.7917 47.3959 62.4792 49.4376 62.4792 51.6667C62.4792 53.8959 61.7708 55.9167 60.6042 57.6251C61.1875 57.8126 61.8333 57.9167 62.5 57.9167ZM52.0833 57.9167C55.5417 57.9167 58.3125 55.1251 58.3125 51.6667C58.3125 48.2084 55.5417 45.4167 52.0833 45.4167C48.625 45.4167 45.8333 48.2084 45.8333 51.6667C45.8333 55.1251 48.625 57.9167 52.0833 57.9167ZM52.0833 62.0834C47.9167 62.0834 39.5833 64.1667 39.5833 68.3334V70.4167C39.5833 71.5626 40.5208 72.5001 41.6667 72.5001H62.5C63.6458 72.5001 64.5833 71.5626 64.5833 70.4167V68.3334C64.5833 64.1667 56.25 62.0834 52.0833 62.0834ZM65.875 62.4167C67.6042 63.9376 68.75 65.8751 68.75 68.3334V71.4584C68.75 71.8126 68.7083 72.1667 68.6458 72.5001H73.9583C74.5417 72.5001 75 72.0417 75 71.4584V68.3334C75 65.1251 70.0625 63.1459 65.875 62.4167Z" fill="#323232"/>
</svg>
