<svg width="100" height="100" viewBox="0 0 100 100" fill="none" xmlns="http://www.w3.org/2000/svg">
<path d="M79.1667 8.33333H61.75C60 3.5 55.4167 0 50 0C44.5833 0 40 3.5 38.25 8.33333H20.8333C16.25 8.33333 12.5 12.0833 12.5 16.6667V83.3333C12.5 87.9167 16.25 91.6667 20.8333 91.6667H79.1667C83.75 91.6667 87.5 87.9167 87.5 83.3333V16.6667C87.5 12.0833 83.75 8.33333 79.1667 8.33333ZM50 8.33333C52.2917 8.33333 54.1667 10.2083 54.1667 12.5C54.1667 14.7917 52.2917 16.6667 50 16.6667C47.7083 16.6667 45.8333 14.7917 45.8333 12.5C45.8333 10.2083 47.7083 8.33333 50 8.33333ZM75 83.3333H25C22.7083 83.3333 20.8333 81.4583 20.8333 79.1667V20.8333C20.8333 18.5417 22.7083 16.6667 25 16.6667H29.1667V20.8333C29.1667 25.4167 32.9167 29.1667 37.5 29.1667H62.5C67.0833 29.1667 70.8333 25.4167 70.8333 20.8333V16.6667H75C77.2917 16.6667 79.1667 18.5417 79.1667 20.8333V79.1667C79.1667 81.4583 77.2917 83.3333 75 83.3333Z" fill="#313131"/>
<path d="M63.2812 55.825C62.0063 49.3562 56.325 44.5 49.5 44.5C44.0812 44.5 39.375 47.575 37.0312 52.075C31.3875 52.675 27 57.4562 27 63.25C27 69.4562 32.0438 74.5 38.25 74.5H62.625C67.8 74.5 72 70.3 72 65.125C72 60.175 68.1562 56.1625 63.2812 55.825Z" fill="#323232"/>
</svg>
