<svg width="100" height="100" viewBox="0 0 100 100" fill="none" xmlns="http://www.w3.org/2000/svg">
<path d="M79.1667 8.33333H61.75C60 3.5 55.4167 0 50 0C44.5833 0 40 3.5 38.25 8.33333H20.8333C16.25 8.33333 12.5 12.0833 12.5 16.6667V83.3333C12.5 87.9167 16.25 91.6667 20.8333 91.6667H79.1667C83.75 91.6667 87.5 87.9167 87.5 83.3333V16.6667C87.5 12.0833 83.75 8.33333 79.1667 8.33333ZM50 8.33333C52.2917 8.33333 54.1667 10.2083 54.1667 12.5C54.1667 14.7917 52.2917 16.6667 50 16.6667C47.7083 16.6667 45.8333 14.7917 45.8333 12.5C45.8333 10.2083 47.7083 8.33333 50 8.33333ZM75 83.3333H25C22.7083 83.3333 20.8333 81.4583 20.8333 79.1667V20.8333C20.8333 18.5417 22.7083 16.6667 25 16.6667H29.1667V20.8333C29.1667 25.4167 32.9167 29.1667 37.5 29.1667H62.5C67.0833 29.1667 70.8333 25.4167 70.8333 20.8333V16.6667H75C77.2917 16.6667 79.1667 18.5417 79.1667 20.8333V79.1667C79.1667 81.4583 77.2917 83.3333 75 83.3333Z" fill="#313131"/>
<path d="M64.4167 45.5208C64 44.2917 62.8333 43.4167 61.4583 43.4167H56.25V41.3333C56.25 40.1875 55.3125 39.25 54.1667 39.25H45.8333C44.6875 39.25 43.75 40.1875 43.75 41.3333V43.4167H38.5417C37.1667 43.4167 36.0208 44.2917 35.5833 45.5208L31.4792 57.3333C31.3333 57.7708 31.25 58.2292 31.25 58.7083V73.625C31.25 75.3542 32.6458 76.75 34.375 76.75C36.1042 76.75 37.5 75.3542 37.5 73.625V72.5833H62.5V73.625C62.5 75.3333 63.8958 76.75 65.625 76.75C67.3333 76.75 68.75 75.3542 68.75 73.625V58.7083C68.75 58.25 68.6667 57.7708 68.5208 57.3333L64.4167 45.5208ZM38.5417 66.3333C36.8125 66.3333 35.4167 64.9375 35.4167 63.2083C35.4167 61.4792 36.8125 60.0833 38.5417 60.0833C40.2708 60.0833 41.6667 61.4792 41.6667 63.2083C41.6667 64.9375 40.2708 66.3333 38.5417 66.3333ZM61.4583 66.3333C59.7292 66.3333 58.3333 64.9375 58.3333 63.2083C58.3333 61.4792 59.7292 60.0833 61.4583 60.0833C63.1875 60.0833 64.5833 61.4792 64.5833 63.2083C64.5833 64.9375 63.1875 66.3333 61.4583 66.3333ZM35.4167 55.9167L38.5417 46.5417H61.4583L64.5833 55.9167H35.4167Z" fill="#323232"/>
</svg>
