<svg width="100" height="100" viewBox="0 0 100 100" fill="none" xmlns="http://www.w3.org/2000/svg">
<path d="M79.1667 8.33333H61.75C60 3.5 55.4167 0 50 0C44.5833 0 40 3.5 38.25 8.33333H20.8333C16.25 8.33333 12.5 12.0833 12.5 16.6667V83.3333C12.5 87.9167 16.25 91.6667 20.8333 91.6667H79.1667C83.75 91.6667 87.5 87.9167 87.5 83.3333V16.6667C87.5 12.0833 83.75 8.33333 79.1667 8.33333ZM50 8.33333C52.2917 8.33333 54.1667 10.2083 54.1667 12.5C54.1667 14.7917 52.2917 16.6667 50 16.6667C47.7083 16.6667 45.8333 14.7917 45.8333 12.5C45.8333 10.2083 47.7083 8.33333 50 8.33333ZM75 83.3333H25C22.7083 83.3333 20.8333 81.4583 20.8333 79.1667V20.8333C20.8333 18.5417 22.7083 16.6667 25 16.6667H29.1667V20.8333C29.1667 25.4167 32.9167 29.1667 37.5 29.1667H62.5C67.0833 29.1667 70.8333 25.4167 70.8333 20.8333V16.6667H75C77.2917 16.6667 79.1667 18.5417 79.1667 20.8333V79.1667C79.1667 81.4583 77.2917 83.3333 75 83.3333Z" fill="#313131"/>
<path d="M60.416 44.5001H56.2494V38.2501C56.2494 37.1042 55.3118 36.1667 54.166 36.1667H45.8327C44.6868 36.1667 43.7493 37.1042 43.7493 38.2501V44.5001H39.5827C37.291 44.5001 35.416 46.3751 35.416 48.6667V71.5834C35.416 73.8751 37.291 75.7501 39.5827 75.7501C39.5827 76.8959 40.5202 77.8334 41.666 77.8334C42.8118 77.8334 43.7493 76.8959 43.7493 75.7501H56.2494C56.2494 76.8959 57.1869 77.8334 58.3327 77.8334C59.4785 77.8334 60.416 76.8959 60.416 75.7501C62.7077 75.7501 64.5827 73.8751 64.5827 71.5834V48.6667C64.5827 46.3751 62.7077 44.5001 60.416 44.5001ZM43.2285 69.5001C42.3743 69.5001 41.666 68.7918 41.666 67.9376V52.3126C41.666 51.4584 42.3743 50.7501 43.2285 50.7501C44.0827 50.7501 44.791 51.4584 44.791 52.3126V67.9376C44.791 68.7918 44.0827 69.5001 43.2285 69.5001ZM49.9993 69.5001C49.1452 69.5001 48.4368 68.7918 48.4368 67.9376V52.3126C48.4368 51.4584 49.1452 50.7501 49.9993 50.7501C50.8535 50.7501 51.5618 51.4584 51.5618 52.3126V67.9376C51.5618 68.7918 50.8535 69.5001 49.9993 69.5001ZM53.1243 44.5001H46.8743V39.2917H53.1243V44.5001ZM56.7702 69.5001C55.916 69.5001 55.2077 68.7918 55.2077 67.9376V52.3126C55.2077 51.4584 55.916 50.7501 56.7702 50.7501C57.6244 50.7501 58.3327 51.4584 58.3327 52.3126V67.9376C58.3327 68.7918 57.6244 69.5001 56.7702 69.5001Z" fill="#323232"/>
</svg>
