<svg width="100" height="100" viewBox="0 0 100 100" fill="none" xmlns="http://www.w3.org/2000/svg">
<path d="M79.1667 8.33333H61.75C60 3.5 55.4167 0 50 0C44.5833 0 40 3.5 38.25 8.33333H20.8333C16.25 8.33333 12.5 12.0833 12.5 16.6667V83.3333C12.5 87.9167 16.25 91.6667 20.8333 91.6667H79.1667C83.75 91.6667 87.5 87.9167 87.5 83.3333V16.6667C87.5 12.0833 83.75 8.33333 79.1667 8.33333ZM50 8.33333C52.2917 8.33333 54.1667 10.2083 54.1667 12.5C54.1667 14.7917 52.2917 16.6667 50 16.6667C47.7083 16.6667 45.8333 14.7917 45.8333 12.5C45.8333 10.2083 47.7083 8.33333 50 8.33333ZM75 83.3333H25C22.7083 83.3333 20.8333 81.4583 20.8333 79.1667V20.8333C20.8333 18.5417 22.7083 16.6667 25 16.6667H29.1667V20.8333C29.1667 25.4167 32.9167 29.1667 37.5 29.1667H62.5C67.0833 29.1667 70.8333 25.4167 70.8333 20.8333V16.6667H75C77.2917 16.6667 79.1667 18.5417 79.1667 20.8333V79.1667C79.1667 81.4583 77.2917 83.3333 75 83.3333Z" fill="#313131"/>
<path d="M43.7507 48.6666C42.6048 48.6666 41.6673 49.6041 41.6673 50.7499V56.9999H35.4173C34.2715 56.9999 33.334 57.9374 33.334 59.0833C33.334 60.2291 34.2715 61.1666 35.4173 61.1666H41.6673V67.4166C41.6673 68.5624 42.6048 69.4999 43.7507 69.4999C44.8965 69.4999 45.834 68.5624 45.834 67.4166V61.1666H52.084C53.2298 61.1666 54.1673 60.2291 54.1673 59.0833C54.1673 57.9374 53.2298 56.9999 52.084 56.9999H45.834V50.7499C45.834 49.6041 44.8965 48.6666 43.7507 48.6666ZM55.209 46.1458C55.209 47.3333 56.2923 48.2291 57.459 47.9999L60.4173 47.4166V67.4166C60.4173 68.5624 61.3548 69.4999 62.5007 69.4999C63.6465 69.4999 64.584 68.5624 64.584 67.4166V45.0624C64.584 43.7083 63.334 42.7291 62.0215 43.0416L56.6673 44.3333C55.8132 44.5208 55.209 45.2916 55.209 46.1458Z" fill="#323232"/>
</svg>
